<?xml version="1.0" encoding="utf-8"?>
<svg xmlns="http://www.w3.org/2000/svg" viewBox="0 0 24 24" width="96" height="96">
  <path d="M6 3C4.346 3 3 4.346 3 6L3 19C3 20.103 3.897 21 5 21L19 21C20.103 21 21 20.103 21 19L21 9C21 7.897 20.103 7 19 7L9 7L8 7L6 7C5.448 7 5 6.551 5 6C5 5.449 5.448 5 6 5L20 5L20 3L6 3 z M 5 8.8164062C5.3143909 8.9285627 5.6476094 9 6 9L8 9L9 9L19 9L19 19L5 19L5 8.8164062 z M 16 13C15.448 13 15 13.448 15 14C15 14.552 15.448 15 16 15C16.552 15 17 14.552 17 14C17 13.448 16.552 13 16 13 z" fill="#5B5B5B" />
</svg>